<?xml version="1.0" encoding="utf-8"?>
<!-- Generator: Adobe Illustrator 25.2.0, SVG Export Plug-In . SVG Version: 6.00 Build 0)  -->
<svg version="1.2" baseProfile="tiny" id="Layer_1" xmlns="http://www.w3.org/2000/svg" xmlns:xlink="http://www.w3.org/1999/xlink"
	 x="0px" y="0px" viewBox="0 0 216 216" overflow="visible" xml:space="preserve">
<g>
	<path fill="#005596" d="M131.2,77.9l5,29.2c-2.5,1.1-10.3,3.9-18.6,5c-0.8,0.1-1.8,0.7,0,1.6c1.8,0.9,41.9,26.2,41.9,26.2l-45.6,0
		c0,0-40.3-31.1-40.5-31.3c-1-0.7-0.9-2.5,1.6-2.6C77.5,106,117.9,103.7,131.2,77.9z"/>
	<path fill="#005596" d="M78.4,39.5"/>
	<path fill="#005596" d="M78.5,39.4h53.7c0,0,37.9,2.7,23.3,42.4c-0.2,0.9-20.4-37.3-20.4-37.3l18.8,42.1c0,0-3.3,10.7-11.8,17.1
		l-16.1-59.2l2.8,16.9c0,0-3.4-2-7.4-3.2l-1.8-13.7L118,57.4c0,0-7.3-1.5-14.4-0.4l4.7-12.4c0,0-36.6,60.2-37.4,62.1
		c0,0-8.5,17.6,15.3,33.3l-65.5,0c0,0,32.6-56.7,33.1-57.6C56.2,78.3,94,44.6,94,44.6L59.2,72.9L78.5,39.4z"/>
	<path fill="#005596" d="M18.8,143.3L8.3,161.6c0,0,22.1-13.5,44.2-13.5c3.5,0,24.1,0,39.2,16.5c0,0,12.2-14.2,42-14.2
		c8.4,0,37.8,0.1,56.4,8.7l-25.2-15.7c0,0-57.5,0-58.6,0c-9.2,0-14.7,8.9-14.7,8.9s-4.9-8.8-12.6-8.9
		C75.9,143.3,18.8,143.3,18.8,143.3z"/>
	<path fill="#005596" d="M5.6,164.9c0,0,23.2-11.7,33-13.8c3.5-0.8,7.7-1.6,14.1-1.6c7.7,0,15.9,1.6,23.9,5.8
		c7.7,4,13.6,10.4,15,11.9c1.7-1.5,9.5-9.3,22.5-12.6c0.5-0.1,9.3-2.8,19.5-2.8c0,0,19.9-0.1,33.2,2.6c9.8,1.9,19.5,4.6,28,7.8
		c0.8,0.7,16.8,10.4,16.8,10.4s-22.4-10.8-46.8-15.4c-10.4-2.3-21.1-2.3-31.4-2.3c-2.6,0.1-13.7,0.4-20.4,3.4
		c-6.3,2.3-13.6,6.3-21.4,13.1c-1.1-0.8-6.9-7.8-16.3-12.8c-6.2-3.3-14-5.5-22.7-5.5c-5.1-0.1-12.1,0.9-19,3.3
		c-10.3,3.2-31.2,14.7-31.5,15C3,169.6,5.6,164.9,5.6,164.9z"/>
	<path fill="#005596" d="M213.6,173.7"/>
	<path fill="#005596" d="M117.3,113.6"/>
</g>
</svg>
